<?xml version="1.0" encoding="UTF-8"?><svg id="_層_1" xmlns="http://www.w3.org/2000/svg" viewBox="0 0 144 144"><defs><style>.cls-1{fill:#888;}</style></defs><path class="cls-1" d="M12.33,72.6V8.85H45.5c5.21,0,9.49,.96,12.82,2.87,3.33,1.92,5.82,4.57,7.47,7.97,1.65,3.4,2.48,7.34,2.48,11.83s-1.07,8.07-3.22,11.34c-2.15,3.27-5,5.76-8.56,7.47,.73,.59,1.35,1.3,1.88,2.13,.53,.83,1.12,1.96,1.78,3.42l7.33,16.73h-19.4l-6.73-15.35c-.53-1.19-1.17-2.03-1.93-2.52-.76-.49-1.83-.74-3.22-.74h-5.25v18.61H12.33ZM30.94,39.74h9.8c2.71,0,4.8-.71,6.29-2.13,1.49-1.42,2.23-3.45,2.23-6.09,0-5.61-2.64-8.42-7.92-8.42h-10.4v16.63Z"/><path class="cls-1" d="M90.44,136.36v-23.36l-22.97-40.39h19.4l12.87,24.06,12.87-24.06h19.4l-22.97,40.39v23.36h-18.61Z"/></svg>