<?xml version="1.0" standalone="no"?>
<!DOCTYPE svg PUBLIC "-//W3C//DTD SVG 20010904//EN"
 "http://www.w3.org/TR/2001/REC-SVG-20010904/DTD/svg10.dtd">
<svg version="1.0" xmlns="http://www.w3.org/2000/svg"
 width="700.000000pt" height="700.000000pt" viewBox="0 0 700.000000 700.000000"
 preserveAspectRatio="xMidYMid meet">
<metadata>
Created by potrace 1.14, written by Peter Selinger 2001-2017
</metadata>
<g transform="translate(0.000000,700.000000) scale(0.100000,-0.100000)"
fill="#000000" stroke="none">
<path d="M600 5020 l0 -1550 453 2 452 3 0 448 c0 246 2 448 5 448 3 1 66 2
140 3 206 3 265 -14 317 -87 28 -39 89 -168 176 -372 19 -44 45 -105 58 -134
13 -30 49 -111 79 -180 l56 -126 473 -5 474 -5 204 -360 c113 -198 326 -571
473 -830 147 -259 279 -491 293 -517 14 -25 37 -64 51 -87 14 -22 26 -43 26
-45 0 -3 14 -29 32 -58 l32 -53 1 -570 1 -570 452 -3 452 -2 0 568 0 568 90
158 c49 87 90 162 90 167 0 5 5 9 10 9 6 0 10 4 10 9 0 5 78 146 173 313 95
166 176 310 180 318 4 8 15 29 26 45 10 17 73 127 140 245 67 118 127 222 131
230 35 57 252 444 257 456 4 12 -60 14 -464 14 l-469 0 -33 -62 c-19 -35 -51
-94 -71 -133 -21 -38 -56 -104 -77 -145 -22 -41 -49 -91 -60 -110 -11 -19 -44
-80 -73 -135 -29 -55 -69 -131 -90 -170 -40 -75 -77 -143 -160 -300 -29 -55
-55 -102 -57 -105 -5 -6 -14 8 -73 120 -105 197 -170 318 -254 473 -18 34 -56
105 -84 157 -28 52 -69 129 -91 170 -23 41 -60 112 -83 157 l-42 83 -474 2
-474 3 -55 125 c-30 69 -77 177 -105 240 -27 63 -58 133 -67 155 -10 22 -47
105 -82 185 -81 185 -141 294 -187 338 -20 20 -31 37 -26 39 6 2 48 27 94 55
90 55 225 181 287 268 67 94 134 238 149 319 3 14 7 27 9 31 17 28 26 321 12
427 -50 386 -231 660 -528 801 -64 30 -171 67 -219 76 -14 2 -36 7 -50 10 -14
3 -41 9 -60 13 -19 3 -443 8 -942 10 l-908 4 0 -1551z m1563 836 c73 -26 112
-52 151 -103 90 -116 106 -346 34 -491 -49 -98 -129 -156 -248 -181 -43 -9
-405 -16 -575 -12 -20 1 -20 6 -19 404 1 221 2 403 3 403 0 1 137 0 304 -1
255 -2 309 -5 350 -19z"/>
</g>
</svg>
